<?xml version="1.0" encoding="utf-8"?><!-- Generator: Adobe Illustrator 16.0.0, SVG Export Plug-In . SVG Version: 6.00 Build 0)  --><!DOCTYPE svg PUBLIC "-//W3C//DTD SVG 1.1//EN" "http://www.w3.org/Graphics/SVG/1.1/DTD/svg11.dtd"><svg xmlns="http://www.w3.org/2000/svg" xmlns:xlink="http://www.w3.org/1999/xlink" version="1.1" id="Layer_15fc50c49b084b" x="0px" y="0px" width="66px" height="67px" viewBox="0 24 66.5 67.5" enable-background="new 0 24 66.5 67.5" xml:space="preserve" aria-hidden="true" style="fill:url(#CerosGradient_ide659b546a);"><defs><linearGradient class="cerosgradient" data-cerosgradient="true" id="CerosGradient_ide659b546a" gradientUnits="userSpaceOnUse" x1="50%" y1="100%" x2="50%" y2="0%"><stop offset="0%" stop-color="#E4E5E6"/><stop offset="100%" stop-color="#E4E5E6"/></linearGradient><linearGradient/></defs>
<circle fill="none" stroke="#DD0605" stroke-width="3.12" stroke-linecap="round" stroke-miterlimit="10" cx="30.029" cy="56.277" r="4.861" style="stroke:url(#CerosGradient_ide659b546a);"/>
<path fill="none" stroke="#DD0605" stroke-width="3.12" stroke-linecap="round" stroke-miterlimit="10" d="M40.656,70.929  l4.025-4.025l-2.835-3.211c0.846-1.345,1.436-2.801,1.779-4.305l4.279-0.265V53.43l-4.279-0.265  c-0.343-1.504-0.933-2.96-1.779-4.305l2.835-3.211l-4.025-4.025l-3.21,2.835c-1.346-0.845-2.802-1.436-4.305-1.779l-0.266-4.279  h-5.693l-0.265,4.279c-1.504,0.343-2.96,0.934-4.305,1.779l-3.21-2.835l-4.026,4.025l2.836,3.211  c-0.846,1.345-1.437,2.801-1.78,4.305l-4.279,0.265v5.693l4.279,0.265c0.343,1.504,0.934,2.96,1.78,4.305l-2.836,3.211l4.026,4.025  l3.21-2.835c1.345,0.845,2.801,1.436,4.305,1.779l0.265,4.279h5.693l0.266-4.279c1.503-0.343,2.959-0.934,4.305-1.779L40.656,70.929  z" style="stroke:url(#CerosGradient_ide659b546a);"/>
</svg>